# xmcd
#
# Track frame offsets: 
#        150
#        21641
#        40727
#        60080
#        81038
#        98590
#        111908
#        134541
#        151431
#        166443
#        184453
#        199920
#        213829
#
# Disc length: 3021 seconds
#
# Revision: 0
# Processed by: cddbd v1.5.2PL0 Copyright (c) Steve Scherf et al.
# Submitted via: ExactAudioCopyFreeDBPlugin 1.0
#
DISCID=b00bcb0d
DTITLE=Зульфат Хаким - Хэерле юл
DYEAR=1998
DGENRE=Ethnic
TTITLE0=Газиз халкым (1995) Dear People Mine
TTITLE1=Тонге сэяхет (1990) Night Travel
TTITLE2=Тэубэ (1997) Repentance
TTITLE3=Апрельдэ кар ява (1988) In April It Is Snowing
TTITLE4=Газап (1994) Suffering
TTITLE5=Ярым ай (1989) Half Moon
TTITLE6=Каргама (1994) Do Not Swear
TTITLE7=Татар иле (1995) Tatar Edge
TTITLE8=Ни булды сина буген? (1992) What Today With You Happens?
TTITLE9=Онытырга ашыкма (1990) Take Your Time To Forget
TTITLE10=Чыктым юлга (1989, 1992) Has Left On Road
TTITLE11=Хэерле юл (1997) Happy Journey
TTITLE12=Жырларым-хыялларым (1990) My Songs - My Dreams
EXTD=
EXTT0=
EXTT1=
EXTT2=
EXTT3=
EXTT4=
EXTT5=
EXTT6=
EXTT7=
EXTT8=
EXTT9=
EXTT10=
EXTT11=
EXTT12=
PLAYORDER=
